<svg xmlns="http://www.w3.org/2000/svg" class="main-svg" style="background: white;" width="1350" height="639" xmlns:xlink="http://www.w3.org/1999/xlink"><defs id="defs-7670f0"><g class="clips"><clipPath class="plotclip" id="clip7670f0xyplot"><rect transform="translate(0) scale(1)" width="1190" height="459"/></clipPath><clipPath class="axesclip" id="clip7670f0x"><rect x="80" y="0" width="1190" height="639"/></clipPath><clipPath class="axesclip" id="clip7670f0y"><rect x="0" y="100" width="1350" height="459"/></clipPath><clipPath class="axesclip" id="clip7670f0xy"><rect x="80" y="100" width="1190" height="459"/></clipPath></g><g class="gradients"/></defs><g class="bglayer"><rect class="bg" style="fill: rgb(229, 236, 246); fill-opacity: 1; stroke-width: 0;" x="80" y="100" width="1190" height="459"/></g><g class="draglayer cursor-crosshair"><g class="xy"><rect class="nsewdrag drag" style="fill: transparent; pointer-events: all; stroke-width: 0;" x="80" y="100" width="1190" height="459" data-subplot="xy"/><rect class="nwdrag drag cursor-nw-resize" style="fill: transparent; pointer-events: all; stroke-width: 0;" x="60" y="80" width="20" height="20" data-subplot="xy"/><rect class="nedrag drag cursor-ne-resize" style="fill: transparent; pointer-events: all; stroke-width: 0;" x="1270" y="80" width="20" height="20" data-subplot="xy"/><rect class="swdrag drag cursor-sw-resize" style="fill: transparent; pointer-events: all; stroke-width: 0;" x="60" y="559" width="20" height="20" data-subplot="xy"/><rect class="sedrag drag cursor-se-resize" style="fill: transparent; pointer-events: all; stroke-width: 0;" x="1270" y="559" width="20" height="20" data-subplot="xy"/><rect class="ewdrag drag cursor-ew-resize" style="fill: transparent; pointer-events: all; stroke-width: 0;" x="199" y="559.5" width="952" height="20" data-subplot="xy"/><rect class="wdrag drag cursor-w-resize" style="fill: transparent; pointer-events: all; stroke-width: 0;" x="80" y="559.5" width="119" height="20" data-subplot="xy"/><rect class="edrag drag cursor-e-resize" style="fill: transparent; pointer-events: all; stroke-width: 0;" x="1151" y="559.5" width="119" height="20" data-subplot="xy"/><rect class="nsdrag drag cursor-ns-resize" style="fill: transparent; pointer-events: all; stroke-width: 0;" x="59.5" y="145.9" width="20" height="367.2" data-subplot="xy"/><rect class="sdrag drag cursor-s-resize" style="fill: transparent; pointer-events: all; stroke-width: 0;" x="59.5" y="513.1" width="20" height="45.9" data-subplot="xy"/><rect class="ndrag drag cursor-n-resize" style="fill: transparent; pointer-events: all; stroke-width: 0;" x="59.5" y="100" width="20" height="45.9" data-subplot="xy"/></g></g><g class="layer-below"><g class="imagelayer"/><g class="shapelayer"/></g><g class="cartesianlayer"><g class="subplot xy"><g class="layer-subplot"><g class="shapelayer"/><g class="imagelayer"/></g><g class="gridlayer"><g class="x"><path class="xgrid crisp" style="stroke: rgb(255, 255, 255); stroke-opacity: 1; stroke-width: 1px;" transform="translate(1064.04)" d="M 0 100 v 459"/><path class="xgrid crisp" style="stroke: rgb(255, 255, 255); stroke-opacity: 1; stroke-width: 1px;" transform="translate(102.88)" d="M 0 100 v 459"/><path class="xgrid crisp" style="stroke: rgb(255, 255, 255); stroke-opacity: 1; stroke-width: 1px;" transform="translate(148.65)" d="M 0 100 v 459"/><path class="xgrid crisp" style="stroke: rgb(255, 255, 255); stroke-opacity: 1; stroke-width: 1px;" transform="translate(194.42)" d="M 0 100 v 459"/><path class="xgrid crisp" style="stroke: rgb(255, 255, 255); stroke-opacity: 1; stroke-width: 1px;" transform="translate(240.19)" d="M 0 100 v 459"/><path class="xgrid crisp" style="stroke: rgb(255, 255, 255); stroke-opacity: 1; stroke-width: 1px;" transform="translate(285.96)" d="M 0 100 v 459"/><path class="xgrid crisp" style="stroke: rgb(255, 255, 255); stroke-opacity: 1; stroke-width: 1px;" transform="translate(331.73)" d="M 0 100 v 459"/><path class="xgrid crisp" style="stroke: rgb(255, 255, 255); stroke-opacity: 1; stroke-width: 1px;" transform="translate(377.5)" d="M 0 100 v 459"/><path class="xgrid crisp" style="stroke: rgb(255, 255, 255); stroke-opacity: 1; stroke-width: 1px;" transform="translate(423.27)" d="M 0 100 v 459"/><path class="xgrid crisp" style="stroke: rgb(255, 255, 255); stroke-opacity: 1; stroke-width: 1px;" transform="translate(469.04)" d="M 0 100 v 459"/><path class="xgrid crisp" style="stroke: rgb(255, 255, 255); stroke-opacity: 1; stroke-width: 1px;" transform="translate(514.81)" d="M 0 100 v 459"/><path class="xgrid crisp" style="stroke: rgb(255, 255, 255); stroke-opacity: 1; stroke-width: 1px;" transform="translate(560.58)" d="M 0 100 v 459"/><path class="xgrid crisp" style="stroke: rgb(255, 255, 255); stroke-opacity: 1; stroke-width: 1px;" transform="translate(606.35)" d="M 0 100 v 459"/><path class="xgrid crisp" style="stroke: rgb(255, 255, 255); stroke-opacity: 1; stroke-width: 1px;" transform="translate(652.12)" d="M 0 100 v 459"/><path class="xgrid crisp" style="stroke: rgb(255, 255, 255); stroke-opacity: 1; stroke-width: 1px;" transform="translate(697.88)" d="M 0 100 v 459"/><path class="xgrid crisp" style="stroke: rgb(255, 255, 255); stroke-opacity: 1; stroke-width: 1px;" transform="translate(743.65)" d="M 0 100 v 459"/><path class="xgrid crisp" style="stroke: rgb(255, 255, 255); stroke-opacity: 1; stroke-width: 1px;" transform="translate(789.42)" d="M 0 100 v 459"/><path class="xgrid crisp" style="stroke: rgb(255, 255, 255); stroke-opacity: 1; stroke-width: 1px;" transform="translate(835.19)" d="M 0 100 v 459"/><path class="xgrid crisp" style="stroke: rgb(255, 255, 255); stroke-opacity: 1; stroke-width: 1px;" transform="translate(880.96)" d="M 0 100 v 459"/><path class="xgrid crisp" style="stroke: rgb(255, 255, 255); stroke-opacity: 1; stroke-width: 1px;" transform="translate(926.73)" d="M 0 100 v 459"/><path class="xgrid crisp" style="stroke: rgb(255, 255, 255); stroke-opacity: 1; stroke-width: 1px;" transform="translate(972.5)" d="M 0 100 v 459"/><path class="xgrid crisp" style="stroke: rgb(255, 255, 255); stroke-opacity: 1; stroke-width: 1px;" transform="translate(1018.27)" d="M 0 100 v 459"/><path class="xgrid crisp" style="stroke: rgb(255, 255, 255); stroke-opacity: 1; stroke-width: 1px;" transform="translate(1109.81)" d="M 0 100 v 459"/><path class="xgrid crisp" style="stroke: rgb(255, 255, 255); stroke-opacity: 1; stroke-width: 1px;" transform="translate(1155.58)" d="M 0 100 v 459"/><path class="xgrid crisp" style="stroke: rgb(255, 255, 255); stroke-opacity: 1; stroke-width: 1px;" transform="translate(1201.35)" d="M 0 100 v 459"/><path class="xgrid crisp" style="stroke: rgb(255, 255, 255); stroke-opacity: 1; stroke-width: 1px;" transform="translate(1247.12)" d="M 0 100 v 459"/></g><g class="y"><path class="ygrid crisp" style="stroke: rgb(255, 255, 255); stroke-opacity: 1; stroke-width: 1px;" transform="translate(0 501.61)" d="M 80 0 h 1190"/><path class="ygrid crisp" style="stroke: rgb(255, 255, 255); stroke-opacity: 1; stroke-width: 1px;" transform="translate(0 420.54)" d="M 80 0 h 1190"/><path class="ygrid crisp" style="stroke: rgb(255, 255, 255); stroke-opacity: 1; stroke-width: 1px;" transform="translate(0 339.47)" d="M 80 0 h 1190"/><path class="ygrid crisp" style="stroke: rgb(255, 255, 255); stroke-opacity: 1; stroke-width: 1px;" transform="translate(0 258.4)" d="M 80 0 h 1190"/><path class="ygrid crisp" style="stroke: rgb(255, 255, 255); stroke-opacity: 1; stroke-width: 1px;" transform="translate(0 177.32)" d="M 80 0 h 1190"/></g></g><g class="zerolinelayer"/><path class="xlines-below"/><path class="ylines-below"/><g class="overlines-below"/><g class="xaxislayer-below"/><g class="yaxislayer-below"/><g class="overaxes-below"/><g class="plot" clip-path="url(#clip7670f0xyplot)" transform="translate(80 100) scale(1)"><g class="boxlayer mlayer"><g class="trace boxes" style="opacity: 1;"><path class="box" style="opacity: 1; fill: rgb(61, 153, 112); fill-opacity: 0.5; stroke: rgb(61, 153, 112); stroke-opacity: 1; stroke-width: 2px;" d="M 11.67 60.89 H 34.1 M 11.67 64.2 H 34.1 V 59.89 H 11.67 Z M 22.88 64.2 V 65.18 M 22.88 59.89 V 59.2"/><path class="box" style="opacity: 1; fill: rgb(61, 153, 112); fill-opacity: 0.5; stroke: rgb(61, 153, 112); stroke-opacity: 1; stroke-width: 2px;" d="M 57.44 55.96 H 79.87 M 57.44 57.34 H 79.87 V 54.96 H 57.44 Z M 68.65 57.34 V 57.64 M 68.65 54.96 V 53.08"/><path class="box" style="opacity: 1; fill: rgb(255, 65, 54); fill-opacity: 0.5; stroke: rgb(255, 65, 54); stroke-opacity: 1; stroke-width: 2px;" d="M 103.21 52.71 H 125.64 M 103.21 52.71 H 125.64 V 52.4 H 103.21 Z M 114.42 52.71 V 54.52 M 114.42 52.4 V 51.73"/><path class="box" style="opacity: 1; fill: rgb(61, 153, 112); fill-opacity: 0.5; stroke: rgb(61, 153, 112); stroke-opacity: 1; stroke-width: 2px;" d="M 148.98 46.98 H 171.41 M 148.98 47.98 H 171.41 V 46.37 H 148.98 Z M 160.19 47.98 V 49.15 M 160.19 46.37 V 44.43"/><path class="box" style="opacity: 1; fill: rgb(255, 65, 54); fill-opacity: 0.5; stroke: rgb(255, 65, 54); stroke-opacity: 1; stroke-width: 2px;" d="M 194.75 44.91 H 217.18 M 194.75 44.91 H 217.18 V 44.78 H 194.75 Z M 205.96 44.91 V 49.37 M 205.96 44.78 V 44.34"/><path class="box" style="opacity: 1; fill: rgb(255, 65, 54); fill-opacity: 0.5; stroke: rgb(255, 65, 54); stroke-opacity: 1; stroke-width: 2px;" d="M 240.52 47.72 H 262.94 M 240.52 48.72 H 262.94 V 44.14 H 240.52 Z M 251.73 48.72 V 49.9 M 251.73 44.14 V 42.96"/><path class="box" style="opacity: 1; fill: rgb(61, 153, 112); fill-opacity: 0.5; stroke: rgb(61, 153, 112); stroke-opacity: 1; stroke-width: 2px;" d="M 286.29 45.35 H 308.71 M 286.29 46.7 H 308.71 V 44.35 H 286.29 Z M 297.5 46.7 V 47.61 M 297.5 44.35 V 43.4"/><path class="box" style="opacity: 1; fill: rgb(61, 153, 112); fill-opacity: 0.5; stroke: rgb(61, 153, 112); stroke-opacity: 1; stroke-width: 2px;" d="M 332.06 46.19 H 354.48 M 332.06 46.35 H 354.48 V 46.19 H 332.06 Z M 343.27 46.35 V 48.42 M 343.27 46.19 V 44.11"/><path class="box" style="opacity: 1; fill: rgb(255, 65, 54); fill-opacity: 0.5; stroke: rgb(255, 65, 54); stroke-opacity: 1; stroke-width: 2px;" d="M 377.82 43.79 H 400.25 M 377.82 44.79 H 400.25 V 42.79 H 377.82 Z M 389.04 44.79 V 46.68 M 389.04 42.79 V 41.08"/><path class="box" style="opacity: 1; fill: rgb(255, 65, 54); fill-opacity: 0.5; stroke: rgb(255, 65, 54); stroke-opacity: 1; stroke-width: 2px;" d="M 423.59 51.71 H 446.02 M 423.59 52.71 H 446.02 V 46.89 H 423.59 Z M 434.81 52.71 V 54.51 M 434.81 46.89 V 46.69"/><path class="box" style="opacity: 1; fill: rgb(255, 65, 54); fill-opacity: 0.5; stroke: rgb(255, 65, 54); stroke-opacity: 1; stroke-width: 2px;" d="M 469.36 51.27 H 491.79 M 469.36 52.27 H 491.79 V 48.91 H 469.36 Z M 480.58 52.27 V 53.91 M 480.58 48.91 V 43.78"/><path class="box" style="opacity: 1; fill: rgb(61, 153, 112); fill-opacity: 0.5; stroke: rgb(61, 153, 112); stroke-opacity: 1; stroke-width: 2px;" d="M 515.13 47.7 H 537.56 M 515.13 48.7 H 537.56 V 47.33 H 515.13 Z M 526.35 48.7 V 53.2 M 526.35 47.33 V 46.71"/><path class="box" style="opacity: 1; fill: rgb(61, 153, 112); fill-opacity: 0.5; stroke: rgb(61, 153, 112); stroke-opacity: 1; stroke-width: 2px;" d="M 560.9 41.77 H 583.33 M 560.9 46.84 H 583.33 V 40.77 H 560.9 Z M 572.12 46.84 V 46.94 M 572.12 40.77 V 39.49"/><path class="box" style="opacity: 1; fill: rgb(61, 153, 112); fill-opacity: 0.5; stroke: rgb(61, 153, 112); stroke-opacity: 1; stroke-width: 2px;" d="M 606.67 35.89 H 629.1 M 606.67 36.81 H 629.1 V 35.89 H 606.67 Z M 617.88 36.81 V 38.69 M 617.88 35.89 V 35.25"/><path class="box" style="opacity: 1; fill: rgb(61, 153, 112); fill-opacity: 0.5; stroke: rgb(61, 153, 112); stroke-opacity: 1; stroke-width: 2px;" d="M 652.44 30.68 H 674.87 M 652.44 31.68 H 674.87 V 30.21 H 652.44 Z M 663.65 31.68 V 32.2 M 663.65 30.21 V 29.51"/><path class="box" style="opacity: 1; fill: rgb(255, 65, 54); fill-opacity: 0.5; stroke: rgb(255, 65, 54); stroke-opacity: 1; stroke-width: 2px;" d="M 698.21 30.41 H 720.64 M 698.21 31.41 H 720.64 V 27.42 H 698.21 Z M 709.42 31.41 V 34.5 M 709.42 27.42 V 27.14"/><path class="box" style="opacity: 1; fill: rgb(61, 153, 112); fill-opacity: 0.5; stroke: rgb(61, 153, 112); stroke-opacity: 1; stroke-width: 2px;" d="M 743.98 29.06 H 766.41 M 743.98 31.32 H 766.41 V 28.06 H 743.98 Z M 755.19 31.32 V 32.61 M 755.19 28.06 V 27.07"/><path class="box" style="opacity: 1; fill: rgb(61, 153, 112); fill-opacity: 0.5; stroke: rgb(61, 153, 112); stroke-opacity: 1; stroke-width: 2px;" d="M 789.75 29.71 H 812.18 M 789.75 30.71 H 812.18 V 28.92 H 789.75 Z M 800.96 30.71 V 33.13 M 800.96 28.92 V 27.65"/><path class="box" style="opacity: 1; fill: rgb(255, 65, 54); fill-opacity: 0.5; stroke: rgb(255, 65, 54); stroke-opacity: 1; stroke-width: 2px;" d="M 835.52 30.45 H 857.94 M 835.52 31.45 H 857.94 V 27.67 H 835.52 Z M 846.73 31.45 V 33.23 M 846.73 27.67 V 27.67"/><path class="box" style="opacity: 1; fill: rgb(61, 153, 112); fill-opacity: 0.5; stroke: rgb(61, 153, 112); stroke-opacity: 1; stroke-width: 2px;" d="M 881.29 25.61 H 903.71 M 881.29 30.54 H 903.71 V 24.61 H 881.29 Z M 892.5 30.54 V 30.65 M 892.5 24.61 V 23.91"/><path class="box" style="opacity: 1; fill: rgb(255, 65, 54); fill-opacity: 0.5; stroke: rgb(255, 65, 54); stroke-opacity: 1; stroke-width: 2px;" d="M 927.06 27.57 H 949.48 M 927.06 28.57 H 949.48 V 25.56 H 927.06 Z M 938.27 28.57 V 30.72 M 938.27 25.56 V 22.95"/><path class="box" style="opacity: 1; fill: rgb(255, 65, 54); fill-opacity: 0.5; stroke: rgb(255, 65, 54); stroke-opacity: 1; stroke-width: 2px;" d="M 972.82 31.65 H 995.25 M 972.82 32.65 H 995.25 V 26.48 H 972.82 Z M 984.04 32.65 V 33.33 M 984.04 26.48 V 24.62"/><path class="box" style="opacity: 1; fill: rgb(61, 153, 112); fill-opacity: 0.5; stroke: rgb(61, 153, 112); stroke-opacity: 1; stroke-width: 2px;" d="M 1018.59 34.81 H 1041.02 M 1018.59 436.49 H 1041.02 V 33.81 H 1018.59 Z M 1029.81 436.49 V 35.71 M 1029.81 33.81 V 436.05"/><path class="box" style="opacity: 1; fill: rgb(255, 65, 54); fill-opacity: 0.5; stroke: rgb(255, 65, 54); stroke-opacity: 1; stroke-width: 2px;" d="M 1064.36 40.18 H 1086.79 M 1064.36 41.18 H 1086.79 V 34.46 H 1064.36 Z M 1075.58 41.18 V 41.56 M 1075.58 34.46 V 34.44"/><path class="box" style="opacity: 1; fill: rgb(61, 153, 112); fill-opacity: 0.5; stroke: rgb(61, 153, 112); stroke-opacity: 1; stroke-width: 2px;" d="M 1110.13 33.93 H 1132.56 M 1110.13 38.95 H 1132.56 V 32.93 H 1110.13 Z M 1121.35 38.95 V 40.51 M 1121.35 32.93 V 32.24"/><path class="box" style="opacity: 1; fill: rgb(255, 65, 54); fill-opacity: 0.5; stroke: rgb(255, 65, 54); stroke-opacity: 1; stroke-width: 2px;" d="M 1155.9 31.67 H 1178.33 M 1155.9 32.67 H 1178.33 V 30.48 H 1155.9 Z M 1167.12 32.67 V 34.19 M 1167.12 30.48 V 27.64"/></g></g></g><g class="overplot"/><path class="xlines-above crisp" style="fill: none; stroke: rgb(255, 255, 255); stroke-opacity: 1; stroke-width: 1px;" d="M 79 559.5 H 1270"/><path class="ylines-above crisp" style="fill: none; stroke: rgb(255, 255, 255); stroke-opacity: 1; stroke-width: 1px;" d="M 79.5 100 V 559"/><g class="overlines-above"/><g class="xaxislayer-above"><g class="xtick"><text style="font-family: &quot;Open Sans&quot;,verdana,arial,sans-serif; font-size: 12px; white-space: pre; fill: rgb(42, 63, 95); fill-opacity: 1;" text-anchor="start" transform="translate(1064.04) rotate(30 0 568.4)" x="0" y="574.4" data-unformatted="30-Jul-20" data-math="N">30-Jul-20</text></g><g class="xtick"><text style="font-family: &quot;Open Sans&quot;,verdana,arial,sans-serif; font-size: 12px; white-space: pre; fill: rgb(42, 63, 95); fill-opacity: 1;" text-anchor="start" transform="translate(102.88) rotate(30 0 568.4)" x="0" y="574.4" data-unformatted="1-Jul-20" data-math="N">1-Jul-20</text></g><g class="xtick"><text style="font-family: &quot;Open Sans&quot;,verdana,arial,sans-serif; font-size: 12px; white-space: pre; fill: rgb(42, 63, 95); fill-opacity: 1;" text-anchor="start" transform="translate(148.65) rotate(30 0 568.4)" x="0" y="574.4" data-unformatted="2-Jul-20" data-math="N">2-Jul-20</text></g><g class="xtick"><text style="font-family: &quot;Open Sans&quot;,verdana,arial,sans-serif; font-size: 12px; white-space: pre; fill: rgb(42, 63, 95); fill-opacity: 1;" text-anchor="start" transform="translate(194.42) rotate(30 0 568.4)" x="0" y="574.4" data-unformatted="3-Jul-20" data-math="N">3-Jul-20</text></g><g class="xtick"><text style="font-family: &quot;Open Sans&quot;,verdana,arial,sans-serif; font-size: 12px; white-space: pre; fill: rgb(42, 63, 95); fill-opacity: 1;" text-anchor="start" transform="translate(240.19) rotate(30 0 568.4)" x="0" y="574.4" data-unformatted="6-Jul-20" data-math="N">6-Jul-20</text></g><g class="xtick"><text style="font-family: &quot;Open Sans&quot;,verdana,arial,sans-serif; font-size: 12px; white-space: pre; fill: rgb(42, 63, 95); fill-opacity: 1;" text-anchor="start" transform="translate(285.96) rotate(30 0 568.4)" x="0" y="574.4" data-unformatted="7-Jul-20" data-math="N">7-Jul-20</text></g><g class="xtick"><text style="font-family: &quot;Open Sans&quot;,verdana,arial,sans-serif; font-size: 12px; white-space: pre; fill: rgb(42, 63, 95); fill-opacity: 1;" text-anchor="start" transform="translate(331.73) rotate(30 0 568.4)" x="0" y="574.4" data-unformatted="8-Jul-20" data-math="N">8-Jul-20</text></g><g class="xtick"><text style="font-family: &quot;Open Sans&quot;,verdana,arial,sans-serif; font-size: 12px; white-space: pre; fill: rgb(42, 63, 95); fill-opacity: 1;" text-anchor="start" transform="translate(377.5) rotate(30 0 568.4)" x="0" y="574.4" data-unformatted="9-Jul-20" data-math="N">9-Jul-20</text></g><g class="xtick"><text style="font-family: &quot;Open Sans&quot;,verdana,arial,sans-serif; font-size: 12px; white-space: pre; fill: rgb(42, 63, 95); fill-opacity: 1;" text-anchor="start" transform="translate(423.27) rotate(30 0 568.4)" x="0" y="574.4" data-unformatted="10-Jul-20" data-math="N">10-Jul-20</text></g><g class="xtick"><text style="font-family: &quot;Open Sans&quot;,verdana,arial,sans-serif; font-size: 12px; white-space: pre; fill: rgb(42, 63, 95); fill-opacity: 1;" text-anchor="start" transform="translate(469.04) rotate(30 0 568.4)" x="0" y="574.4" data-unformatted="13-Jul-20" data-math="N">13-Jul-20</text></g><g class="xtick"><text style="font-family: &quot;Open Sans&quot;,verdana,arial,sans-serif; font-size: 12px; white-space: pre; fill: rgb(42, 63, 95); fill-opacity: 1;" text-anchor="start" transform="translate(514.81) rotate(30 0 568.4)" x="0" y="574.4" data-unformatted="14-Jul-20" data-math="N">14-Jul-20</text></g><g class="xtick"><text style="font-family: &quot;Open Sans&quot;,verdana,arial,sans-serif; font-size: 12px; white-space: pre; fill: rgb(42, 63, 95); fill-opacity: 1;" text-anchor="start" transform="translate(560.58) rotate(30 0 568.4)" x="0" y="574.4" data-unformatted="15-Jul-20" data-math="N">15-Jul-20</text></g><g class="xtick"><text style="font-family: &quot;Open Sans&quot;,verdana,arial,sans-serif; font-size: 12px; white-space: pre; fill: rgb(42, 63, 95); fill-opacity: 1;" text-anchor="start" transform="translate(606.35) rotate(30 0 568.4)" x="0" y="574.4" data-unformatted="16-Jul-20" data-math="N">16-Jul-20</text></g><g class="xtick"><text style="font-family: &quot;Open Sans&quot;,verdana,arial,sans-serif; font-size: 12px; white-space: pre; fill: rgb(42, 63, 95); fill-opacity: 1;" text-anchor="start" transform="translate(652.12) rotate(30 0 568.4)" x="0" y="574.4" data-unformatted="17-Jul-20" data-math="N">17-Jul-20</text></g><g class="xtick"><text style="font-family: &quot;Open Sans&quot;,verdana,arial,sans-serif; font-size: 12px; white-space: pre; fill: rgb(42, 63, 95); fill-opacity: 1;" text-anchor="start" transform="translate(697.88) rotate(30 0 568.4)" x="0" y="574.4" data-unformatted="20-Jul-20" data-math="N">20-Jul-20</text></g><g class="xtick"><text style="font-family: &quot;Open Sans&quot;,verdana,arial,sans-serif; font-size: 12px; white-space: pre; fill: rgb(42, 63, 95); fill-opacity: 1;" text-anchor="start" transform="translate(743.65) rotate(30 0 568.4)" x="0" y="574.4" data-unformatted="21-Jul-20" data-math="N">21-Jul-20</text></g><g class="xtick"><text style="font-family: &quot;Open Sans&quot;,verdana,arial,sans-serif; font-size: 12px; white-space: pre; fill: rgb(42, 63, 95); fill-opacity: 1;" text-anchor="start" transform="translate(789.42) rotate(30 0 568.4)" x="0" y="574.4" data-unformatted="22-Jul-20" data-math="N">22-Jul-20</text></g><g class="xtick"><text style="font-family: &quot;Open Sans&quot;,verdana,arial,sans-serif; font-size: 12px; white-space: pre; fill: rgb(42, 63, 95); fill-opacity: 1;" text-anchor="start" transform="translate(835.19) rotate(30 0 568.4)" x="0" y="574.4" data-unformatted="23-Jul-20" data-math="N">23-Jul-20</text></g><g class="xtick"><text style="font-family: &quot;Open Sans&quot;,verdana,arial,sans-serif; font-size: 12px; white-space: pre; fill: rgb(42, 63, 95); fill-opacity: 1;" text-anchor="start" transform="translate(880.96) rotate(30 0 568.4)" x="0" y="574.4" data-unformatted="24-Jul-20" data-math="N">24-Jul-20</text></g><g class="xtick"><text style="font-family: &quot;Open Sans&quot;,verdana,arial,sans-serif; font-size: 12px; white-space: pre; fill: rgb(42, 63, 95); fill-opacity: 1;" text-anchor="start" transform="translate(926.73) rotate(30 0 568.4)" x="0" y="574.4" data-unformatted="27-Jul-20" data-math="N">27-Jul-20</text></g><g class="xtick"><text style="font-family: &quot;Open Sans&quot;,verdana,arial,sans-serif; font-size: 12px; white-space: pre; fill: rgb(42, 63, 95); fill-opacity: 1;" text-anchor="start" transform="translate(972.5) rotate(30 0 568.4)" x="0" y="574.4" data-unformatted="28-Jul-20" data-math="N">28-Jul-20</text></g><g class="xtick"><text style="font-family: &quot;Open Sans&quot;,verdana,arial,sans-serif; font-size: 12px; white-space: pre; fill: rgb(42, 63, 95); fill-opacity: 1;" text-anchor="start" transform="translate(1018.27) rotate(30 0 568.4)" x="0" y="574.4" data-unformatted="29-Jul-20" data-math="N">29-Jul-20</text></g><g class="xtick"><text style="font-family: &quot;Open Sans&quot;,verdana,arial,sans-serif; font-size: 12px; white-space: pre; fill: rgb(42, 63, 95); fill-opacity: 1;" text-anchor="start" transform="translate(1109.81) rotate(30 0 568.4)" x="0" y="574.4" data-unformatted="31-Jul-20" data-math="N">31-Jul-20</text></g><g class="xtick"><text style="font-family: &quot;Open Sans&quot;,verdana,arial,sans-serif; font-size: 12px; white-space: pre; fill: rgb(42, 63, 95); fill-opacity: 1;" text-anchor="start" transform="translate(1155.58) rotate(30 0 568.4)" x="0" y="574.4" data-unformatted="3-Aug-20" data-math="N">3-Aug-20</text></g><g class="xtick"><text style="font-family: &quot;Open Sans&quot;,verdana,arial,sans-serif; font-size: 12px; white-space: pre; fill: rgb(42, 63, 95); fill-opacity: 1;" text-anchor="start" transform="translate(1201.35) rotate(30 0 568.4)" x="0" y="574.4" data-unformatted="4-Aug-20" data-math="N">4-Aug-20</text></g><g class="xtick"><text style="font-family: &quot;Open Sans&quot;,verdana,arial,sans-serif; font-size: 12px; white-space: pre; fill: rgb(42, 63, 95); fill-opacity: 1;" text-anchor="start" transform="translate(1247.12) rotate(30 0 568.4)" x="0" y="574.4" data-unformatted="5-Aug-20" data-math="N">5-Aug-20</text></g></g><g class="yaxislayer-above"><g class="ytick"><text style="font-family: &quot;Open Sans&quot;,verdana,arial,sans-serif; font-size: 12px; white-space: pre; fill: rgb(42, 63, 95); fill-opacity: 1;" text-anchor="end" transform="translate(0 501.61)" x="76.6" y="4.2" data-unformatted="2k" data-math="N">2k</text></g><g class="ytick"><text style="font-family: &quot;Open Sans&quot;,verdana,arial,sans-serif; font-size: 12px; white-space: pre; fill: rgb(42, 63, 95); fill-opacity: 1;" text-anchor="end" transform="translate(0 420.54)" x="76.6" y="4.2" data-unformatted="4k" data-math="N">4k</text></g><g class="ytick"><text style="font-family: &quot;Open Sans&quot;,verdana,arial,sans-serif; font-size: 12px; white-space: pre; fill: rgb(42, 63, 95); fill-opacity: 1;" text-anchor="end" transform="translate(0 339.47)" x="76.6" y="4.2" data-unformatted="6k" data-math="N">6k</text></g><g class="ytick"><text style="font-family: &quot;Open Sans&quot;,verdana,arial,sans-serif; font-size: 12px; white-space: pre; fill: rgb(42, 63, 95); fill-opacity: 1;" text-anchor="end" transform="translate(0 258.4)" x="76.6" y="4.2" data-unformatted="8k" data-math="N">8k</text></g><g class="ytick"><text style="font-family: &quot;Open Sans&quot;,verdana,arial,sans-serif; font-size: 12px; white-space: pre; fill: rgb(42, 63, 95); fill-opacity: 1;" text-anchor="end" transform="translate(0 177.32)" x="76.6" y="4.2" data-unformatted="10k" data-math="N">10k</text></g></g><g class="overaxes-above"/></g></g><g class="polarlayer"/><g class="ternarylayer"/><g class="geolayer"/><g class="funnelarealayer"/><g class="pielayer"/><g class="treemaplayer"/><g class="sunburstlayer"/><g class="glimages"/></svg>